TITLE "127.300, flac"
FILE "127.300.flac" WAVE

TRACK 01 AUDIO
TITLE "2020.02.06-05:59.26:783874"
INDEX 01 00:26:34

TRACK 02 AUDIO
TITLE "2020.02.06-05:59.53:703797"
INDEX 00 00:32:07
INDEX 01 00:53:28

TRACK 03 AUDIO
TITLE "2020.02.06-06:00.08:643622"
INDEX 00 01:07:60
INDEX 01 01:08:24

TRACK 04 AUDIO
TITLE "2020.02.06-06:01.00:965476"
INDEX 00 01:22:54
INDEX 01 02:00:48

TRACK 05 AUDIO
TITLE "2020.02.06-06:01.36:648892"
INDEX 00 02:12:35
INDEX 01 02:36:24

TRACK 06 AUDIO
TITLE "2020.02.06-06:01.53:623784"
INDEX 00 02:47:39
INDEX 01 02:53:22

TRACK 07 AUDIO
TITLE "2020.02.06-06:02.53:103852"
INDEX 00 03:01:15
INDEX 01 03:52:58

TRACK 08 AUDIO
TITLE "2020.02.06-06:03.19:503865"
INDEX 00 03:59:46
INDEX 01 04:19:13

TRACK 09 AUDIO
TITLE "2020.02.06-06:03.35:123690"
INDEX 00 04:31:13
INDEX 01 04:34:60

TRACK 10 AUDIO
TITLE "2020.02.06-06:03.40:283728"
INDEX 00 04:39:07
INDEX 01 04:39:72

TRACK 11 AUDIO
TITLE "2020.02.06-06:03.51:263739"
INDEX 00 04:45:42
INDEX 01 04:50:70

TRACK 12 AUDIO
TITLE "2020.02.06-06:05.20:648718"
INDEX 00 04:59:25
INDEX 01 06:20:24

TRACK 13 AUDIO
TITLE "2020.02.06-06:05.45:344229"
INDEX 00 06:30:27
INDEX 01 06:45:01

TRACK 14 AUDIO
TITLE "2020.02.06-06:06.10:503779"
INDEX 00 06:54:33
INDEX 01 07:10:13

TRACK 15 AUDIO
TITLE "2020.02.06-06:06.19:023746"
INDEX 00 07:18:16
INDEX 01 07:18:52

TRACK 16 AUDIO
TITLE "2020.02.06-06:06.36:363968"
INDEX 00 07:26:15
INDEX 01 07:36:03

TRACK 17 AUDIO
TITLE "2020.02.06-06:07.07:167903"
INDEX 00 08:03:63
INDEX 01 08:06:63

TRACK 18 AUDIO
TITLE "2020.02.06-06:07.35:008432"
INDEX 00 08:23:69
INDEX 01 08:34:51

TRACK 19 AUDIO
TITLE "2020.02.06-06:07.40:645379"
INDEX 00 08:40:20
INDEX 01 08:40:24

TRACK 20 AUDIO
TITLE "2020.02.06-06:07.48:843926"
INDEX 00 08:48:08
INDEX 01 08:48:39

TRACK 21 AUDIO
TITLE "2020.02.06-06:08.08:703818"
INDEX 00 08:54:25
INDEX 01 09:08:28

TRACK 22 AUDIO
TITLE "2020.02.06-06:08.14:503850"
INDEX 00 09:14:03
INDEX 01 09:14:13

TRACK 23 AUDIO
TITLE "2020.02.06-06:09.21:263785"
INDEX 00 09:20:22
INDEX 01 10:20:70

TRACK 24 AUDIO
TITLE "2020.02.06-06:09.30:448693"
INDEX 00 10:29:64
INDEX 01 10:30:09

TRACK 25 AUDIO
TITLE "2020.02.06-06:10.21:823806"
INDEX 00 10:44:57
INDEX 01 11:21:37

TRACK 26 AUDIO
TITLE "2020.02.06-06:10.28:183758"
INDEX 00 11:27:43
INDEX 01 11:27:64

TRACK 27 AUDIO
TITLE "2020.02.06-06:11.22:105375"
INDEX 00 11:46:07
INDEX 01 12:21:59

TRACK 28 AUDIO
TITLE "2020.02.06-06:11.36:548170"
INDEX 00 12:31:36
INDEX 01 12:36:17

TRACK 29 AUDIO
TITLE "2020.02.06-06:12.16:447809"
INDEX 00 12:46:57
INDEX 01 13:16:09

TRACK 30 AUDIO
TITLE "2020.02.06-06:13.18:663769"
INDEX 00 13:24:02
INDEX 01 14:18:25

TRACK 31 AUDIO
TITLE "2020.02.06-06:13.53:943774"
INDEX 00 14:27:13
INDEX 01 14:53:46

TRACK 32 AUDIO
TITLE "2020.02.06-06:14.22:483753"
INDEX 00 15:01:03
INDEX 01 15:22:12

TRACK 33 AUDIO
TITLE "2020.02.06-06:15.03:703698"
INDEX 00 15:33:28
INDEX 01 16:03:28

TRACK 34 AUDIO
TITLE "2020.02.06-06:16.03:603875"
INDEX 00 16:17:21
INDEX 01 17:03:21

TRACK 35 AUDIO
TITLE "2020.02.06-06:16.11:483965"
INDEX 00 17:10:34
INDEX 01 17:11:12

TRACK 36 AUDIO
TITLE "2020.02.06-06:16.27:524064"
INDEX 00 17:23:28
INDEX 01 17:27:15

TRACK 37 AUDIO
TITLE "2020.02.06-06:17.11:763799"
INDEX 00 17:36:45
INDEX 01 18:11:33

TRACK 38 AUDIO
TITLE "2020.02.06-06:17.27:624628"
INDEX 00 18:20:73
INDEX 01 18:27:22

TRACK 39 AUDIO
TITLE "2020.02.06-06:17.33:186115"
INDEX 00 18:32:54
INDEX 01 18:32:65

TRACK 40 AUDIO
TITLE "2020.02.06-06:18.19:623682"
INDEX 00 18:39:35
INDEX 01 19:19:22

TRACK 41 AUDIO
TITLE "2020.02.06-06:18.25:225355"
INDEX 00 19:24:25
INDEX 01 19:24:68

TRACK 42 AUDIO
TITLE "2020.02.06-06:18.59:164152"
INDEX 00 19:30:27
INDEX 01 19:58:63

TRACK 43 AUDIO
TITLE "2020.02.06-06:19.08:603835"
INDEX 00 20:06:07
INDEX 01 20:08:21

TRACK 44 AUDIO
TITLE "2020.02.06-06:19.21:683805"
INDEX 00 20:19:03
INDEX 01 20:21:27

TRACK 45 AUDIO
TITLE "2020.02.06-06:19.30:463855"
INDEX 00 20:30:06
INDEX 01 20:30:10

TRACK 46 AUDIO
TITLE "2020.02.06-06:19.58:864168"
INDEX 00 20:38:55
INDEX 01 20:58:40

TRACK 47 AUDIO
TITLE "2020.02.06-06:20.08:183819"
INDEX 00 21:06:06
INDEX 01 21:07:64

TRACK 48 AUDIO
TITLE "2020.02.06-06:21.18:744000"
INDEX 00 21:10:21
INDEX 01 22:18:31

TRACK 49 AUDIO
TITLE "2020.02.06-06:21.29:923822"
INDEX 00 22:26:67
INDEX 01 22:29:45

TRACK 50 AUDIO
TITLE "2020.02.06-06:21.42:063941"
INDEX 00 22:36:15
INDEX 01 22:41:55

TRACK 51 AUDIO
TITLE "2020.02.06-06:21.51:045736"
INDEX 00 22:50:30
INDEX 01 22:50:54

TRACK 52 AUDIO
TITLE "2020.02.06-06:22.35:663718"
INDEX 00 22:53:32
INDEX 01 23:35:25

TRACK 53 AUDIO
TITLE "2020.02.06-06:23.32:407811"
INDEX 00 23:49:18
INDEX 01 24:32:06

TRACK 54 AUDIO
TITLE "2020.02.06-06:23.36:563746"
INDEX 00 24:36:00
INDEX 01 24:36:18

TRACK 55 AUDIO
TITLE "2020.02.06-06:23.40:303984"
INDEX 00 24:39:37
INDEX 01 24:39:73

TRACK 56 AUDIO
TITLE "2020.02.06-06:23.54:607693"
INDEX 00 24:42:34
INDEX 01 24:54:21

TRACK 57 AUDIO
TITLE "2020.02.06-06:24.35:963894"
INDEX 00 25:01:60
INDEX 01 25:35:48

TRACK 58 AUDIO
TITLE "2020.02.06-06:25.18:563794"
INDEX 00 25:56:13
INDEX 01 26:18:18

TRACK 59 AUDIO
TITLE "2020.02.06-06:25.23:363741"
INDEX 00 26:22:28
INDEX 01 26:23:03

TRACK 60 AUDIO
TITLE "2020.02.06-06:25.55:963656"
INDEX 00 26:26:66
INDEX 01 26:55:48

TRACK 61 AUDIO
TITLE "2020.02.06-06:26.01:047461"
INDEX 00 27:00:43
INDEX 01 27:00:54

TRACK 62 AUDIO
TITLE "2020.02.06-06:26.19:623904"
INDEX 00 27:07:12
INDEX 01 27:19:22

TRACK 63 AUDIO
TITLE "2020.02.06-06:27.12:963971"
INDEX 00 27:31:06
INDEX 01 28:12:48

TRACK 64 AUDIO
TITLE "2020.02.06-06:27.24:804036"
INDEX 00 28:20:01
INDEX 01 28:24:36

TRACK 65 AUDIO
TITLE "2020.02.06-06:27.34:603841"
INDEX 00 28:32:69
INDEX 01 28:34:21

TRACK 66 AUDIO
TITLE "2020.02.06-06:27.40:004040"
INDEX 00 28:39:09
INDEX 01 28:39:51

TRACK 67 AUDIO
TITLE "2020.02.06-06:28.33:803859"
INDEX 00 28:54:55
INDEX 01 29:33:36

TRACK 68 AUDIO
TITLE "2020.02.06-06:29.15:868489"
INDEX 00 29:40:55
INDEX 01 30:15:41

TRACK 69 AUDIO
TITLE "2020.02.06-06:29.39:646602"
INDEX 00 30:23:35
INDEX 01 30:39:24

TRACK 70 AUDIO
TITLE "2020.02.06-06:29.56:743791"
INDEX 00 30:49:36
INDEX 01 30:56:31

TRACK 71 AUDIO
TITLE "2020.02.06-06:30.13:463777"
INDEX 00 31:05:67
INDEX 01 31:13:10

TRACK 72 AUDIO
TITLE "2020.02.06-06:30.31:863888"
INDEX 00 31:22:07
INDEX 01 31:31:40

TRACK 73 AUDIO
TITLE "2020.02.06-06:30.48:543934"
INDEX 00 31:39:51
INDEX 01 31:48:16

TRACK 74 AUDIO
TITLE "2020.02.06-06:31.12:927763"
INDEX 00 31:55:10
INDEX 01 32:12:45

TRACK 75 AUDIO
TITLE "2020.02.06-06:32.18:184006"
INDEX 00 32:23:05
INDEX 01 33:17:64

TRACK 76 AUDIO
TITLE "2020.02.06-06:32.22:783655"
INDEX 00 33:21:60
INDEX 01 33:22:34

TRACK 77 AUDIO
TITLE "2020.02.06-06:32.56:523873"
INDEX 00 33:25:13
INDEX 01 33:56:15

TRACK 78 AUDIO
TITLE "2020.02.06-06:33.00:903825"
INDEX 00 34:00:27
INDEX 01 34:00:43

TRACK 79 AUDIO
TITLE "2020.02.06-06:33.12:123737"
INDEX 00 34:03:64
INDEX 01 34:11:60

TRACK 80 AUDIO
TITLE "2020.02.06-06:33.32:064151"
INDEX 00 34:19:19
INDEX 01 34:31:55

TRACK 81 AUDIO
TITLE "2020.02.06-06:33.46:303776"
INDEX 00 34:41:13
INDEX 01 34:45:73

TRACK 82 AUDIO
TITLE "2020.02.06-06:34.12:503838"
INDEX 00 34:52:63
INDEX 01 35:12:13

TRACK 83 AUDIO
TITLE "2020.02.06-06:34.41:103813"
INDEX 00 35:21:52
INDEX 01 35:40:58

TRACK 84 AUDIO
TITLE "2020.02.06-06:35.08:484638"
INDEX 00 36:06:39
INDEX 01 36:08:12

TRACK 85 AUDIO
TITLE "2020.02.06-06:35.20:645303"
INDEX 00 36:16:64
INDEX 01 36:20:24

TRACK 86 AUDIO
TITLE "2020.02.06-06:35.52:923721"
INDEX 00 36:49:27
INDEX 01 36:52:45

TRACK 87 AUDIO
TITLE "2020.02.06-06:36.05:963907"
INDEX 00 37:03:66
INDEX 01 37:05:48

TRACK 88 AUDIO
TITLE "2020.02.06-06:36.33:448025"
INDEX 00 37:13:06
INDEX 01 37:33:09

TRACK 89 AUDIO
TITLE "2020.02.06-06:37.16:826146"
INDEX 00 37:39:62
INDEX 01 38:16:38

TRACK 90 AUDIO
TITLE "2020.02.06-06:38.08:403810"
INDEX 00 38:26:12
INDEX 01 39:08:06

TRACK 91 AUDIO
TITLE "2020.02.06-06:38.24:323796"
INDEX 00 39:16:73
INDEX 01 39:24:00

TRACK 92 AUDIO
TITLE "2020.02.06-06:39.02:363842"
INDEX 00 39:31:07
INDEX 01 40:02:03

TRACK 93 AUDIO
TITLE "2020.02.06-06:39.54:443880"
INDEX 00 40:08:61
INDEX 01 40:54:09

TRACK 94 AUDIO
TITLE "2020.02.06-06:39.59:563775"
INDEX 00 40:59:00
INDEX 01 40:59:18

TRACK 95 AUDIO
TITLE "2020.02.06-06:40.43:783791"
INDEX 00 41:13:40
INDEX 01 41:43:34

TRACK 96 AUDIO
TITLE "2020.02.06-06:42.00:124030"
INDEX 00 41:53:66
INDEX 01 42:59:60

TRACK 97 AUDIO
TITLE "2020.02.06-06:42.04:424008"
INDEX 00 43:03:51
INDEX 01 43:04:07

TRACK 98 AUDIO
TITLE "2020.02.06-06:42.08:703882"
INDEX 00 43:07:40
INDEX 01 43:08:28

TRACK 99 AUDIO
TITLE "2020.02.06-06:42.15:563807"
INDEX 00 43:10:51
INDEX 01 43:15:18

TRACK 100 AUDIO
TITLE "2020.02.06-06:42.40:945980"
INDEX 00 43:25:01
INDEX 01 43:40:47

TRACK 101 AUDIO
TITLE "2020.02.06-06:43.56:983852"
INDEX 00 43:52:29
INDEX 01 44:56:49

TRACK 102 AUDIO
TITLE "2020.02.06-06:45.12:383665"
INDEX 00 45:24:33
INDEX 01 46:12:04

TRACK 103 AUDIO
TITLE "2020.02.06-06:46.02:183836"
INDEX 00 46:19:12
INDEX 01 47:01:64

TRACK 104 AUDIO
TITLE "2020.02.06-06:46.06:263842"
INDEX 00 47:05:46
INDEX 01 47:05:70

TRACK 105 AUDIO
TITLE "2020.02.06-06:46.12:263816"
INDEX 00 47:11:43
INDEX 01 47:11:70

TRACK 106 AUDIO
TITLE "2020.02.06-06:46.21:483869"
INDEX 00 47:20:40
INDEX 01 47:21:12

TRACK 107 AUDIO
TITLE "2020.02.06-06:47.09:203782"
INDEX 00 47:28:43
INDEX 01 48:08:66

TRACK 108 AUDIO
TITLE "2020.02.06-06:48.26:543811"
INDEX 00 48:16:61
INDEX 01 49:26:16

TRACK 109 AUDIO
TITLE "2020.02.06-06:48.33:003698"
INDEX 00 49:30:24
INDEX 01 49:32:51

TRACK 110 AUDIO
TITLE "2020.02.06-06:49.38:184032"
INDEX 00 49:51:39
INDEX 01 50:37:64

TRACK 111 AUDIO
TITLE "2020.02.06-06:50.17:284569"
INDEX 00 50:45:30
INDEX 01 51:16:72

TRACK 112 AUDIO
TITLE "2020.02.06-06:50.31:243814"
INDEX 00 51:18:03
INDEX 01 51:30:69

TRACK 113 AUDIO
TITLE "2020.02.06-06:50.49:443845"
INDEX 00 51:47:52
INDEX 01 51:49:09

TRACK 114 AUDIO
TITLE "2020.02.06-06:50.55:863712"
INDEX 00 51:55:19
INDEX 01 51:55:40

TRACK 115 AUDIO
TITLE "2020.02.06-06:52.10:563797"
INDEX 00 52:11:69
INDEX 01 53:10:18

TRACK 116 AUDIO
TITLE "2020.02.06-06:52.28:587019"
INDEX 00 53:25:31
INDEX 01 53:28:20

TRACK 117 AUDIO
TITLE "2020.02.06-06:54.10:563777"
INDEX 00 53:43:02
INDEX 01 55:10:18

TRACK 118 AUDIO
TITLE "2020.02.06-06:54.17:463762"
INDEX 00 55:16:52
INDEX 01 55:17:10

TRACK 119 AUDIO
TITLE "2020.02.06-06:54.21:743753"
INDEX 00 55:20:34
INDEX 01 55:21:31

TRACK 120 AUDIO
TITLE "2020.02.06-06:54.35:327708"
INDEX 00 55:33:09
INDEX 01 55:35:00

TRACK 121 AUDIO
TITLE "2020.02.06-06:54.37:243789"
INDEX 00 55:36:38
INDEX 01 55:36:69

TRACK 122 AUDIO
TITLE "2020.02.06-06:54.51:863783"
INDEX 00 55:48:21
INDEX 01 55:51:40

TRACK 123 AUDIO
TITLE "2020.02.06-06:55.24:543860"
INDEX 00 56:19:60
INDEX 01 56:24:16

TRACK 124 AUDIO
TITLE "2020.02.06-06:55.41:029081"
INDEX 00 56:36:33
INDEX 01 56:40:53

TRACK 125 AUDIO
TITLE "2020.02.06-06:56.38:263962"
INDEX 00 56:47:36
INDEX 01 57:37:70

TRACK 126 AUDIO
TITLE "2020.02.06-06:57.12:588297"
INDEX 00 57:47:64
INDEX 01 58:12:20

TRACK 127 AUDIO
TITLE "2020.02.06-06:58.12:603742"
INDEX 00 58:30:45
INDEX 01 59:12:21

TRACK 128 AUDIO
TITLE "2020.02.06-06:58.27:303790"
INDEX 00 59:26:60
INDEX 01 59:26:73

TRACK 129 AUDIO
TITLE "2020.02.06-06:59.10:005558"
INDEX 00 59:32:15
INDEX 01 60:09:51

TRACK 130 AUDIO
TITLE "2020.02.06-07:00.11:483869"
INDEX 00 60:16:44
INDEX 01 61:11:12

TRACK 131 AUDIO
TITLE "2020.02.06-07:00.51:507441"
INDEX 00 61:25:28
INDEX 01 61:51:14

TRACK 132 AUDIO
TITLE "2020.02.06-07:01.01:143660"
INDEX 00 61:58:00
INDEX 01 62:00:61

TRACK 133 AUDIO
TITLE "2020.02.06-07:01.09:023999"
INDEX 00 62:08:25
INDEX 01 62:08:52

